<svg width="24" height="24" viewBox="0 0 24 24" fill="none" xmlns="http://www.w3.org/2000/svg">
<g id="octicon:arrow-up-24">
<path id="Vector" d="M13.5952 18.6549C13.4547 18.5143 13.3758 18.3236 13.3758 18.1249C13.3758 17.9261 13.4547 17.7355 13.5952 17.5949L18.5652 12.6249L4.12517 12.6249C3.92626 12.6249 3.73549 12.5459 3.59484 12.4052C3.45419 12.2646 3.37517 12.0738 3.37517 11.8749C3.37517 11.676 3.45419 11.4852 3.59484 11.3446C3.73549 11.2039 3.92626 11.1249 4.12517 11.1249L18.5652 11.1249L13.5952 6.1549C13.4964 6.06323 13.4243 5.94662 13.3863 5.81737C13.3482 5.68813 13.3458 5.55102 13.3792 5.42049C13.4125 5.28997 13.4805 5.17086 13.5759 5.07572C13.6713 4.98058 13.7906 4.91293 13.9212 4.8799C14.0515 4.84648 14.1885 4.84881 14.3177 4.88665C14.4468 4.92448 14.5634 4.99642 14.6552 5.0949L20.9052 11.3449C21.0456 11.4855 21.1245 11.6761 21.1245 11.8749C21.1245 12.0736 21.0456 12.2643 20.9052 12.4049L14.6552 18.6549C14.5145 18.7953 14.3239 18.8742 14.1252 18.8742C13.9264 18.8742 13.7358 18.7953 13.5952 18.6549Z" fill="black"/>
</g>
</svg>
