<svg width="27" height="26" viewBox="0 0 27 26" fill="none" xmlns="http://www.w3.org/2000/svg">
<g id="carbon:add-filled">
<path id="Vector" d="M13.5 1.625C10.3789 1.66147 7.39629 2.87161 5.18917 4.99698C2.98206 7.12235 1.72537 9.99449 1.6875 13C1.72537 16.0055 2.98206 18.8776 5.18917 21.003C7.39629 23.1284 10.3789 24.3385 13.5 24.375C16.6211 24.3385 19.6037 23.1284 21.8108 21.003C24.0179 18.8776 25.2746 16.0055 25.3125 13C25.2746 9.99449 24.0179 7.12235 21.8108 4.99698C19.6037 2.87161 16.6211 1.66147 13.5 1.625ZM20.25 13.8125H14.3438V19.5H12.6562V13.8125H6.75V12.1875H12.6562V6.5H14.3438V12.1875H20.25V13.8125Z" fill="#2D429B" fill-opacity="0.45"/>
</g>
</svg>
