<svg width="14" height="13" viewBox="0 0 14 13" fill="none" xmlns="http://www.w3.org/2000/svg">
<g id="Group 1000002188">
<path id="Vector" d="M4.20654 9.92762L6.15556 11.2922C6.40705 11.5196 6.97289 11.6333 7.35012 11.6333H9.73924C10.4937 11.6333 11.311 11.1216 11.4996 10.4393L13.0086 6.28881C13.3229 5.49281 12.7571 4.81054 11.814 4.81054H9.29914C8.92191 4.81054 8.60755 4.52625 8.67043 4.12826L8.98478 2.30885C9.11053 1.79714 8.7333 1.22857 8.16745 1.058C7.66448 0.887435 7.03576 1.11486 6.78428 1.456L4.20654 4.92425" stroke="#7A7A7A" stroke-width="1.2" stroke-miterlimit="10"/>
<path id="Vector_2" d="M1 9.92761V4.35566C1 3.55967 1.37723 3.27539 2.25743 3.27539H2.88615C3.76635 3.27539 4.14358 3.55967 4.14358 4.35566V9.92761C4.14358 10.7236 3.76635 11.0079 2.88615 11.0079H2.25743C1.37723 11.0079 1 10.7236 1 9.92761Z" stroke="#7A7A7A" stroke-width="1.2" stroke-linecap="round" stroke-linejoin="round"/>
</g>
</svg>
