<svg width="21" height="21" viewBox="0 0 21 21" fill="none" xmlns="http://www.w3.org/2000/svg">
<g id="Group 1000002188">
<path id="Vector" d="M5.80322 16.9552L8.90322 19.3552C9.30322 19.7552 10.2032 19.9552 10.8032 19.9552H14.6032C15.8032 19.9552 17.1032 19.0552 17.4032 17.8552L19.8032 10.5552C20.3032 9.15519 19.4032 7.95519 17.9032 7.95519H13.9032C13.3032 7.95519 12.8032 7.45519 12.9032 6.75519L13.4032 3.55519C13.6032 2.65519 13.0032 1.65519 12.1032 1.35519C11.3032 1.05519 10.3032 1.45519 9.90322 2.05519L5.80322 8.15519" stroke="#7A7A7A" stroke-width="1.2" stroke-miterlimit="10"/>
<path id="Vector_2" d="M0.703125 16.9551V7.15513C0.703125 5.75513 1.30313 5.25513 2.70312 5.25513H3.70312C5.10312 5.25513 5.70312 5.75513 5.70312 7.15513V16.9551C5.70312 18.3551 5.10312 18.8551 3.70312 18.8551H2.70312C1.30313 18.8551 0.703125 18.3551 0.703125 16.9551Z" stroke="#7A7A7A" stroke-width="1.2" stroke-linecap="round" stroke-linejoin="round"/>
</g>
</svg>
