<svg width="171" height="33" viewBox="0 0 171 33" fill="none" xmlns="http://www.w3.org/2000/svg">
<g id="logoipsum-250" clip-path="url(#clip0_716_191)">
<path id="Vector" d="M67.5821 7.03394H64V23.1972H73.9164V20.0301H67.5821V7.03394Z" fill="#4845D2"/>
<path id="Vector_2" d="M74.2583 17.7148C74.2583 21.1659 76.5736 23.4593 80.0683 23.4593C83.5412 23.4593 85.8565 21.1659 85.8565 17.7148C85.8565 14.2637 83.5412 11.9484 80.0683 11.9484C76.5736 11.9484 74.2583 14.2637 74.2583 17.7148ZM77.6438 17.6929C77.6438 16.0548 78.6049 14.9627 80.0683 14.9627C81.5099 14.9627 82.471 16.0548 82.471 17.6929C82.471 19.353 81.5099 20.4451 80.0683 20.4451C78.6049 20.4451 77.6438 19.353 77.6438 17.6929Z" fill="#4845D2"/>
<path id="Vector_3" d="M86.3977 17.5401C86.3977 20.8382 88.5383 23.0661 91.5743 23.0661C93.0378 23.0661 94.3046 22.5419 94.938 21.6901V23.1972C94.938 24.7043 93.9988 25.709 92.3388 25.709C90.8535 25.709 89.8269 25.0101 89.7614 23.7651H86.354C86.6598 26.7575 88.9751 28.7669 92.1422 28.7669C95.8772 28.7669 98.2362 26.3425 98.2362 22.4982V12.2761H95.2001L95.0254 13.39C94.4138 12.4945 93.1251 11.9048 91.6399 11.9048C88.5819 11.9048 86.3977 14.1982 86.3977 17.5401ZM89.8051 17.4527C89.8051 15.88 90.8535 14.8316 92.1859 14.8316C93.7367 14.8316 94.8725 15.8582 94.8725 17.4527C94.8725 19.0472 93.7585 20.1393 92.2077 20.1393C90.8754 20.1393 89.8051 19.0472 89.8051 17.4527Z" fill="#4845D2"/>
<path id="Vector_4" d="M99.2168 17.7148C99.2168 21.1659 101.532 23.4593 105.027 23.4593C108.5 23.4593 110.815 21.1659 110.815 17.7148C110.815 14.2637 108.5 11.9484 105.027 11.9484C101.532 11.9484 99.2168 14.2637 99.2168 17.7148ZM102.602 17.6929C102.602 16.0548 103.563 14.9627 105.027 14.9627C106.468 14.9627 107.429 16.0548 107.429 17.6929C107.429 19.353 106.468 20.4451 105.027 20.4451C103.563 20.4451 102.602 19.353 102.602 17.6929Z" fill="#4845D2"/>
<path id="Vector_5" d="M113.715 10.5724C114.763 10.5724 115.615 9.72054 115.615 8.65027C115.615 7.58 114.763 6.75 113.715 6.75C112.645 6.75 111.793 7.58 111.793 8.65027C111.793 9.72054 112.645 10.5724 113.715 10.5724ZM112.011 23.1972H115.397V12.2761H112.011V23.1972Z" fill="#4845D2"/>
<path id="Vector_6" d="M117.368 28.4393H120.688V22.1051C121.321 22.9351 122.763 23.503 124.27 23.503C127.524 23.503 129.49 21.013 129.403 17.5619C129.315 14.0453 127.284 11.9266 124.248 11.9266C122.697 11.9266 121.234 12.6037 120.622 13.6085L120.447 12.2761H117.368V28.4393ZM120.753 17.7366C120.753 16.0985 121.845 15.0064 123.418 15.0064C125.012 15.0064 126.017 16.1203 126.017 17.7366C126.017 19.353 125.012 20.4669 123.418 20.4669C121.845 20.4669 120.753 19.3748 120.753 17.7366Z" fill="#4845D2"/>
<path id="Vector_7" d="M129.761 19.7461C129.848 21.9522 131.596 23.4811 134.348 23.4811C136.991 23.4811 138.826 22.0832 138.826 19.8335C138.826 18.2172 137.865 17.1469 136.073 16.71L134.13 16.2295C133.431 16.0548 132.994 15.88 132.994 15.3121C132.994 14.7442 133.452 14.3729 134.13 14.3729C134.894 14.3729 135.396 14.8753 135.375 15.6179H138.411C138.323 13.3463 136.598 11.9266 134.195 11.9266C131.771 11.9266 129.958 13.3682 129.958 15.5524C129.958 17.0158 130.766 18.2172 132.928 18.7851L134.85 19.2874C135.418 19.4403 135.658 19.7024 135.658 20.0737C135.658 20.6198 135.156 20.9693 134.304 20.9693C133.321 20.9693 132.797 20.5106 132.797 19.7461H129.761Z" fill="#4845D2"/>
<path id="Vector_8" d="M143.974 23.4811C145.307 23.4811 146.639 22.8695 147.316 21.974L147.535 23.1972H150.702V12.2761H147.338V17.9551C147.338 19.5932 146.858 20.4887 145.307 20.4887C144.105 20.4887 143.319 19.9427 143.319 17.9114V12.2761H139.955V19.1345C139.955 21.7338 141.397 23.4811 143.974 23.4811Z" fill="#4845D2"/>
<path id="Vector_9" d="M156.036 23.1972V17.2343C156.036 15.3995 157.019 14.8753 157.98 14.8753C159.05 14.8753 159.749 15.5306 159.749 16.8848V23.1972H163.069V17.2343C163.069 15.3777 164.03 14.8535 164.991 14.8535C166.061 14.8535 166.782 15.5087 166.782 16.8848V23.1972H170.059V16.0548C170.059 13.5648 168.748 11.9048 165.93 11.9048C164.358 11.9048 163.069 12.6692 162.501 13.8487C161.846 12.6692 160.71 11.9048 158.897 11.9048C157.696 11.9048 156.582 12.4508 155.927 13.3245L155.796 12.2761H152.65V23.1972H156.036Z" fill="#4845D2"/>
<path id="Vector_10" d="M0 16.75C0 7.91344 7.16344 0.75 16 0.75H37C45.8366 0.75 53 7.91344 53 16.75V32.75H16C7.16344 32.75 0 25.5866 0 16.75Z" fill="#4845D2"/>
<path id="Vector_11" d="M37 6.75H16C10.4772 6.75 6 11.2272 6 16.75C6 22.2728 10.4772 26.75 16 26.75H37C42.5228 26.75 47 22.2728 47 16.75C47 11.2272 42.5228 6.75 37 6.75Z" fill="#A5B4FC"/>
<path id="Vector_12" d="M16 21.75C18.7614 21.75 21 19.5114 21 16.75C21 13.9886 18.7614 11.75 16 11.75C13.2386 11.75 11 13.9886 11 16.75C11 19.5114 13.2386 21.75 16 21.75Z" fill="black"/>
<path id="Vector_13" d="M14 15.75C14.5523 15.75 15 15.3023 15 14.75C15 14.1977 14.5523 13.75 14 13.75C13.4477 13.75 13 14.1977 13 14.75C13 15.3023 13.4477 15.75 14 15.75Z" fill="white"/>
<path id="Vector_14" d="M38 21.75C40.7614 21.75 43 19.5114 43 16.75C43 13.9886 40.7614 11.75 38 11.75C35.2386 11.75 33 13.9886 33 16.75C33 19.5114 35.2386 21.75 38 21.75Z" fill="black"/>
<path id="Vector_15" d="M36 15.75C36.5523 15.75 37 15.3023 37 14.75C37 14.1977 36.5523 13.75 36 13.75C35.4477 13.75 35 14.1977 35 14.75C35 15.3023 35.4477 15.75 36 15.75Z" fill="white"/>
</g>
<defs>
<clipPath id="clip0_716_191">
<rect width="171" height="32" fill="white" transform="translate(0 0.75)"/>
</clipPath>
</defs>
</svg>
