<svg width="170" height="42" viewBox="0 0 170 42" fill="none" xmlns="http://www.w3.org/2000/svg">
<g id="logoipsum-264" clip-path="url(#clip0_716_208)">
<path id="Vector" d="M51.8599 28.388H63.8119V24.788H56.1079V11.228H51.8599V28.388Z" fill="#340E0E"/>
<path id="Vector_2" d="M70.8933 25.988C69.1893 25.988 68.3013 24.5 68.3013 22.268C68.3013 20.036 69.1893 18.524 70.8933 18.524C72.5973 18.524 73.5093 20.036 73.5093 22.268C73.5093 24.5 72.5973 25.988 70.8933 25.988ZM70.9173 28.772C74.8773 28.772 77.4693 25.964 77.4693 22.268C77.4693 18.572 74.8773 15.764 70.9173 15.764C66.9813 15.764 64.3413 18.572 64.3413 22.268C64.3413 25.964 66.9813 28.772 70.9173 28.772Z" fill="#340E0E"/>
<path id="Vector_3" d="M84.3236 32.636C86.1476 32.636 87.7556 32.228 88.8356 31.268C89.8196 30.38 90.4676 29.036 90.4676 27.188V16.1H86.7236V17.42H86.6756C85.9556 16.388 84.8516 15.74 83.2196 15.74C80.1716 15.74 78.0596 18.284 78.0596 21.884C78.0596 25.652 80.6276 27.716 83.3876 27.716C84.8756 27.716 85.8116 27.116 86.5316 26.3H86.6276V27.524C86.6276 29.012 85.9316 29.876 84.2756 29.876C82.9796 29.876 82.3316 29.324 82.1156 28.676H78.3236C78.7076 31.244 80.9396 32.636 84.3236 32.636ZM84.2996 24.812C82.8356 24.812 81.8756 23.612 81.8756 21.764C81.8756 19.892 82.8356 18.692 84.2996 18.692C85.9316 18.692 86.7956 20.084 86.7956 21.74C86.7956 23.468 86.0036 24.812 84.2996 24.812Z" fill="#340E0E"/>
<path id="Vector_4" d="M98.1658 25.988C96.4618 25.988 95.5738 24.5 95.5738 22.268C95.5738 20.036 96.4618 18.524 98.1658 18.524C99.8698 18.524 100.782 20.036 100.782 22.268C100.782 24.5 99.8698 25.988 98.1658 25.988ZM98.1898 28.772C102.15 28.772 104.742 25.964 104.742 22.268C104.742 18.572 102.15 15.764 98.1898 15.764C94.2538 15.764 91.6138 18.572 91.6138 22.268C91.6138 25.964 94.2538 28.772 98.1898 28.772Z" fill="#340E0E"/>
<path id="Vector_5" d="M105.884 28.388H109.796V16.1H105.884V28.388ZM105.884 14.396H109.796V11.228H105.884V14.396Z" fill="#340E0E"/>
<path id="Vector_6" d="M111.494 32.444H115.406V27.116H115.454C116.222 28.148 117.35 28.772 118.934 28.772C122.15 28.772 124.286 26.228 124.286 22.244C124.286 18.548 122.294 15.74 119.03 15.74C117.35 15.74 116.15 16.484 115.31 17.588H115.238V16.1H111.494V32.444ZM117.926 25.748C116.246 25.748 115.286 24.38 115.286 22.388C115.286 20.396 116.15 18.884 117.854 18.884C119.534 18.884 120.326 20.276 120.326 22.388C120.326 24.476 119.414 25.748 117.926 25.748Z" fill="#340E0E"/>
<path id="Vector_7" d="M130.655 28.772C133.871 28.772 136.247 27.38 136.247 24.692C136.247 21.548 133.703 20.996 131.543 20.636C129.983 20.348 128.591 20.228 128.591 19.364C128.591 18.596 129.335 18.236 130.295 18.236C131.375 18.236 132.119 18.572 132.263 19.676H135.863C135.671 17.252 133.799 15.74 130.319 15.74C127.415 15.74 125.015 17.084 125.015 19.676C125.015 22.556 127.295 23.132 129.431 23.492C131.063 23.78 132.551 23.9 132.551 25.004C132.551 25.796 131.807 26.228 130.631 26.228C129.335 26.228 128.519 25.628 128.375 24.404H124.679C124.799 27.116 127.055 28.772 130.655 28.772Z" fill="#340E0E"/>
<path id="Vector_8" d="M141.561 28.748C143.265 28.748 144.345 28.076 145.233 26.876H145.305V28.388H149.049V16.1H145.137V22.964C145.137 24.428 144.321 25.436 142.977 25.436C141.729 25.436 141.129 24.692 141.129 23.348V16.1H137.241V24.164C137.241 26.9 138.729 28.748 141.561 28.748Z" fill="#340E0E"/>
<path id="Vector_9" d="M150.75 28.388H154.662V21.5C154.662 20.036 155.382 19.004 156.606 19.004C157.782 19.004 158.334 19.772 158.334 21.092V28.388H162.246V21.5C162.246 20.036 162.942 19.004 164.19 19.004C165.366 19.004 165.918 19.772 165.918 21.092V28.388H169.83V20.396C169.83 17.636 168.438 15.74 165.654 15.74C164.07 15.74 162.75 16.412 161.79 17.9H161.742C161.118 16.58 159.894 15.74 158.286 15.74C156.51 15.74 155.334 16.58 154.566 17.852H154.494V16.1H150.75V28.388Z" fill="#340E0E"/>
<path id="Vector_10" fill-rule="evenodd" clip-rule="evenodd" d="M20.6841 40.388C31.7298 40.388 40.6841 31.4337 40.6841 20.388C40.6841 9.34237 31.7298 0.388062 20.6841 0.388062C9.63837 0.388062 0.684082 9.34237 0.684082 20.388C0.684082 31.4337 9.63837 40.388 20.6841 40.388ZM26.9234 9.7049C27.2271 8.62611 26.1802 7.98819 25.2241 8.66936L11.8772 18.1776C10.8403 18.9163 11.0034 20.388 12.1222 20.388H15.6368V20.3608H22.4866L16.9053 22.3301L14.4448 31.0712C14.1411 32.15 15.1879 32.7879 16.1441 32.1067L29.491 22.5985C30.5279 21.8598 30.3647 20.388 29.246 20.388H23.9162L26.9234 9.7049Z" fill="#F15757"/>
</g>
<defs>
<clipPath id="clip0_716_208">
<rect width="170" height="41" fill="white" transform="translate(0 0.25)"/>
</clipPath>
</defs>
</svg>
