<svg width="155" height="41" viewBox="0 0 155 41" fill="none" xmlns="http://www.w3.org/2000/svg">
<g id="logoipsum-244" clip-path="url(#clip0_716_249)">
<path id="Vector" d="M51.5821 11.0339H48V27.1972H57.9164V24.0301H51.5821V11.0339Z" fill="#243A5A"/>
<path id="Vector_2" d="M58.2583 21.7148C58.2583 25.1659 60.5736 27.4593 64.0683 27.4593C67.5412 27.4593 69.8565 25.1659 69.8565 21.7148C69.8565 18.2637 67.5412 15.9484 64.0683 15.9484C60.5736 15.9484 58.2583 18.2637 58.2583 21.7148ZM61.6438 21.6929C61.6438 20.0548 62.6049 18.9627 64.0683 18.9627C65.5099 18.9627 66.471 20.0548 66.471 21.6929C66.471 23.353 65.5099 24.4451 64.0683 24.4451C62.6049 24.4451 61.6438 23.353 61.6438 21.6929Z" fill="#243A5A"/>
<path id="Vector_3" d="M70.3977 21.5401C70.3977 24.8382 72.5383 27.0661 75.5743 27.0661C77.0378 27.0661 78.3046 26.5419 78.938 25.6901V27.1972C78.938 28.7043 77.9988 29.709 76.3388 29.709C74.8535 29.709 73.8269 29.0101 73.7614 27.7651H70.354C70.6598 30.7575 72.9751 32.7669 76.1422 32.7669C79.8772 32.7669 82.2362 30.3425 82.2362 26.4982V16.2761H79.2001L79.0254 17.39C78.4138 16.4945 77.1251 15.9048 75.6399 15.9048C72.5819 15.9048 70.3977 18.1982 70.3977 21.5401ZM73.8051 21.4527C73.8051 19.88 74.8535 18.8316 76.1859 18.8316C77.7367 18.8316 78.8725 19.8582 78.8725 21.4527C78.8725 23.0472 77.7585 24.1393 76.2077 24.1393C74.8754 24.1393 73.8051 23.0472 73.8051 21.4527Z" fill="#243A5A"/>
<path id="Vector_4" d="M83.2168 21.7148C83.2168 25.1659 85.5321 27.4593 89.0269 27.4593C92.4998 27.4593 94.815 25.1659 94.815 21.7148C94.815 18.2637 92.4998 15.9484 89.0269 15.9484C85.5321 15.9484 83.2168 18.2637 83.2168 21.7148ZM86.6024 21.6929C86.6024 20.0548 87.5634 18.9627 89.0269 18.9627C90.4684 18.9627 91.4295 20.0548 91.4295 21.6929C91.4295 23.353 90.4684 24.4451 89.0269 24.4451C87.5634 24.4451 86.6024 23.353 86.6024 21.6929Z" fill="#243A5A"/>
<path id="Vector_5" d="M97.7151 14.5724C98.7635 14.5724 99.6154 13.7205 99.6154 12.6503C99.6154 11.58 98.7635 10.75 97.7151 10.75C96.6448 10.75 95.793 11.58 95.793 12.6503C95.793 13.7205 96.6448 14.5724 97.7151 14.5724ZM96.0114 27.1972H99.397V16.2761H96.0114V27.1972Z" fill="#243A5A"/>
<path id="Vector_6" d="M101.368 32.4393H104.688V26.1051C105.321 26.9351 106.763 27.503 108.27 27.503C111.524 27.503 113.49 25.013 113.403 21.5619C113.315 18.0453 111.284 15.9266 108.248 15.9266C106.697 15.9266 105.234 16.6037 104.622 17.6085L104.447 16.2761H101.368V32.4393ZM104.753 21.7366C104.753 20.0985 105.845 19.0064 107.418 19.0064C109.012 19.0064 110.017 20.1203 110.017 21.7366C110.017 23.353 109.012 24.4669 107.418 24.4669C105.845 24.4669 104.753 23.3748 104.753 21.7366Z" fill="#243A5A"/>
<path id="Vector_7" d="M113.761 23.7461C113.848 25.9522 115.596 27.4811 118.348 27.4811C120.991 27.4811 122.826 26.0832 122.826 23.8335C122.826 22.2172 121.865 21.1469 120.073 20.71L118.13 20.2295C117.431 20.0548 116.994 19.88 116.994 19.3121C116.994 18.7442 117.452 18.3729 118.13 18.3729C118.894 18.3729 119.396 18.8753 119.375 19.6179H122.411C122.323 17.3463 120.598 15.9266 118.195 15.9266C115.771 15.9266 113.958 17.3682 113.958 19.5524C113.958 21.0158 114.766 22.2172 116.928 22.7851L118.85 23.2874C119.418 23.4403 119.658 23.7024 119.658 24.0737C119.658 24.6198 119.156 24.9693 118.304 24.9693C117.321 24.9693 116.797 24.5106 116.797 23.7461H113.761Z" fill="#243A5A"/>
<path id="Vector_8" d="M127.974 27.4811C129.307 27.4811 130.639 26.8695 131.316 25.974L131.535 27.1972H134.702V16.2761H131.338V21.9551C131.338 23.5932 130.858 24.4887 129.307 24.4887C128.105 24.4887 127.319 23.9427 127.319 21.9114V16.2761H123.955V23.1345C123.955 25.7338 125.397 27.4811 127.974 27.4811Z" fill="#243A5A"/>
<path id="Vector_9" d="M140.036 27.1972V21.2343C140.036 19.3995 141.019 18.8753 141.98 18.8753C143.05 18.8753 143.749 19.5306 143.749 20.8848V27.1972H147.069V21.2343C147.069 19.3777 148.03 18.8535 148.991 18.8535C150.061 18.8535 150.782 19.5087 150.782 20.8848V27.1972H154.059V20.0548C154.059 17.5648 152.748 15.9048 149.93 15.9048C148.358 15.9048 147.069 16.6692 146.501 17.8487C145.846 16.6692 144.71 15.9048 142.897 15.9048C141.696 15.9048 140.582 16.4508 139.927 17.3245L139.796 16.2761H136.65V27.1972H140.036Z" fill="#243A5A"/>
<path id="Vector_10" d="M0 20.75C0 11.3219 0 6.60786 2.92893 3.67893C5.85786 0.75 10.5719 0.75 20 0.75C29.4281 0.75 34.1421 0.75 37.0711 3.67893C40 6.60786 40 11.3219 40 20.75C40 30.1781 40 34.8921 37.0711 37.8211C34.1421 40.75 29.4281 40.75 20 40.75C10.5719 40.75 5.85786 40.75 2.92893 37.8211C0 34.8921 0 30.1781 0 20.75Z" fill="#243A5A"/>
<path id="Vector_11" d="M24.0002 26.75C24.5525 26.75 25.0103 27.2021 24.9006 27.7434C24.7067 28.6994 24.2357 29.5855 23.5357 30.2855C22.5981 31.2232 21.3263 31.75 20.0002 31.75C18.6741 31.75 17.4024 31.2232 16.4647 30.2855C15.7647 29.5855 15.2937 28.6994 15.0999 27.7434C14.9901 27.2021 15.4479 26.75 16.0002 26.75H24.0002Z" fill="#2DF8BB"/>
<path id="Vector_12" d="M26.1022 18.5265C25.5687 18.6694 25.242 19.2275 25.5125 19.709C25.7972 20.2158 26.191 20.6581 26.6701 21.0014C27.4223 21.5404 28.3381 21.802 29.2616 21.7414C30.185 21.6809 31.0589 21.3021 31.7343 20.6695C32.4098 20.0369 32.8449 19.1896 32.9657 18.2721C33.0865 17.3546 32.8855 16.4236 32.3968 15.6377C31.9081 14.8519 31.162 14.2598 30.2857 13.9623C29.4094 13.6648 28.4571 13.6804 27.591 14.0064C27.0394 14.214 26.5446 14.5393 26.1384 14.9551C25.7525 15.3502 25.9236 15.9739 26.4019 16.25L26.9092 16.5429C27.6807 16.9884 27.5286 18.1443 26.668 18.3749L26.1022 18.5265Z" fill="#2DF8BB"/>
<path id="Vector_13" d="M13.8977 18.5265C14.4312 18.6694 14.7579 19.2275 14.4874 19.709C14.2027 20.2158 13.8089 20.6581 13.3299 21.0014C12.5777 21.5404 11.6618 21.802 10.7384 21.7414C9.81496 21.6809 8.94107 21.3021 8.26564 20.6695C7.59021 20.0369 7.15502 19.1896 7.03423 18.2721C6.91344 17.3546 7.11451 16.4236 7.6032 15.6377C8.09188 14.8519 8.83794 14.2598 9.71425 13.9623C10.5905 13.6648 11.5429 13.6804 12.409 14.0064C12.9605 14.214 13.4554 14.5393 13.8616 14.9551C14.2475 15.3502 14.0763 15.9739 13.598 16.25L13.0907 16.5429C12.3192 16.9884 12.4714 18.1443 13.3319 18.3749L13.8977 18.5265Z" fill="#2DF8BB"/>
</g>
<defs>
<clipPath id="clip0_716_249">
<rect width="155" height="40" fill="white" transform="translate(0 0.75)"/>
</clipPath>
</defs>
</svg>
