<svg width="168" height="42" viewBox="0 0 168 42" fill="none" xmlns="http://www.w3.org/2000/svg">
<g id="logoipsum-265" clip-path="url(#clip0_716_232)">
<path id="Vector" d="M49.2773 29.2024H61.2293V25.6024H53.5253V12.0424H49.2773V29.2024Z" fill="#3C2B1F"/>
<path id="Vector_2" d="M68.3108 26.8024C66.6068 26.8024 65.7188 25.3144 65.7188 23.0824C65.7188 20.8504 66.6068 19.3384 68.3108 19.3384C70.0148 19.3384 70.9268 20.8504 70.9268 23.0824C70.9268 25.3144 70.0148 26.8024 68.3108 26.8024ZM68.3348 29.5864C72.2948 29.5864 74.8868 26.7784 74.8868 23.0824C74.8868 19.3864 72.2948 16.5784 68.3348 16.5784C64.3988 16.5784 61.7588 19.3864 61.7588 23.0824C61.7588 26.7784 64.3988 29.5864 68.3348 29.5864Z" fill="#3C2B1F"/>
<path id="Vector_3" d="M81.7411 33.4504C83.5651 33.4504 85.1731 33.0424 86.2531 32.0824C87.2371 31.1944 87.8851 29.8504 87.8851 28.0024V16.9144H84.1411V18.2344H84.0931C83.3731 17.2024 82.2691 16.5544 80.6371 16.5544C77.5891 16.5544 75.4771 19.0984 75.4771 22.6984C75.4771 26.4664 78.0451 28.5304 80.8051 28.5304C82.2931 28.5304 83.2291 27.9304 83.9491 27.1144H84.0451V28.3384C84.0451 29.8264 83.3491 30.6904 81.6931 30.6904C80.3971 30.6904 79.7491 30.1384 79.5331 29.4904H75.7411C76.1251 32.0584 78.3571 33.4504 81.7411 33.4504ZM81.7171 25.6264C80.2531 25.6264 79.2931 24.4264 79.2931 22.5784C79.2931 20.7064 80.2531 19.5064 81.7171 19.5064C83.3491 19.5064 84.2131 20.8984 84.2131 22.5544C84.2131 24.2824 83.4211 25.6264 81.7171 25.6264Z" fill="#3C2B1F"/>
<path id="Vector_4" d="M95.5837 26.8024C93.8797 26.8024 92.9917 25.3144 92.9917 23.0824C92.9917 20.8504 93.8797 19.3384 95.5837 19.3384C97.2877 19.3384 98.1997 20.8504 98.1997 23.0824C98.1997 25.3144 97.2877 26.8024 95.5837 26.8024ZM95.6077 29.5864C99.5677 29.5864 102.159 26.7784 102.159 23.0824C102.159 19.3864 99.5677 16.5784 95.6077 16.5784C91.6717 16.5784 89.0317 19.3864 89.0317 23.0824C89.0317 26.7784 91.6717 29.5864 95.6077 29.5864Z" fill="#3C2B1F"/>
<path id="Vector_5" d="M103.302 29.2024H107.214V16.9144H103.302V29.2024ZM103.302 15.2104H107.214V12.0424H103.302V15.2104Z" fill="#3C2B1F"/>
<path id="Vector_6" d="M108.911 33.2584H112.823V27.9304H112.871C113.639 28.9624 114.767 29.5864 116.351 29.5864C119.567 29.5864 121.703 27.0424 121.703 23.0584C121.703 19.3624 119.711 16.5544 116.447 16.5544C114.767 16.5544 113.567 17.2984 112.727 18.4024H112.655V16.9144H108.911V33.2584ZM115.343 26.5624C113.663 26.5624 112.703 25.1944 112.703 23.2024C112.703 21.2104 113.567 19.6984 115.271 19.6984C116.951 19.6984 117.743 21.0904 117.743 23.2024C117.743 25.2904 116.831 26.5624 115.343 26.5624Z" fill="#3C2B1F"/>
<path id="Vector_7" d="M128.072 29.5864C131.288 29.5864 133.664 28.1944 133.664 25.5064C133.664 22.3624 131.12 21.8104 128.96 21.4504C127.4 21.1624 126.008 21.0424 126.008 20.1784C126.008 19.4104 126.752 19.0504 127.712 19.0504C128.792 19.0504 129.536 19.3864 129.68 20.4904H133.28C133.088 18.0664 131.216 16.5544 127.736 16.5544C124.832 16.5544 122.432 17.8984 122.432 20.4904C122.432 23.3704 124.712 23.9464 126.848 24.3064C128.48 24.5944 129.968 24.7144 129.968 25.8184C129.968 26.6104 129.224 27.0424 128.048 27.0424C126.752 27.0424 125.936 26.4424 125.792 25.2184H122.096C122.216 27.9304 124.472 29.5864 128.072 29.5864Z" fill="#3C2B1F"/>
<path id="Vector_8" d="M138.978 29.5624C140.682 29.5624 141.762 28.8904 142.65 27.6904H142.722V29.2024H146.466V16.9144H142.554V23.7784C142.554 25.2424 141.738 26.2504 140.394 26.2504C139.146 26.2504 138.546 25.5064 138.546 24.1624V16.9144H134.658V24.9784C134.658 27.7144 136.146 29.5624 138.978 29.5624Z" fill="#3C2B1F"/>
<path id="Vector_9" d="M148.168 29.2024H152.08V22.3144C152.08 20.8504 152.8 19.8184 154.024 19.8184C155.2 19.8184 155.752 20.5864 155.752 21.9064V29.2024H159.664V22.3144C159.664 20.8504 160.36 19.8184 161.608 19.8184C162.784 19.8184 163.336 20.5864 163.336 21.9064V29.2024H167.248V21.2104C167.248 18.4504 165.856 16.5544 163.072 16.5544C161.488 16.5544 160.168 17.2264 159.208 18.7144H159.16C158.536 17.3944 157.312 16.5544 155.704 16.5544C153.928 16.5544 152.752 17.3944 151.984 18.6664H151.912V16.9144H148.168V29.2024Z" fill="#3C2B1F"/>
<path id="Vector_10" d="M25.4099 2.22683L21.4769 1.17297L18.1625 13.5425L15.1702 2.37521L11.2371 3.42907L14.4701 15.4945L6.41746 7.44195L3.53827 10.3211L12.371 19.1539L1.37124 16.2065L0.317383 20.1395L12.336 23.3599C12.1984 22.7664 12.1256 22.148 12.1256 21.5126C12.1256 17.015 15.7716 13.369 20.2692 13.369C24.7668 13.369 28.4128 17.015 28.4128 21.5126C28.4128 22.1439 28.3409 22.7585 28.205 23.3485L39.1277 26.2752L40.1815 22.3422L28.1151 19.109L39.1156 16.1614L38.0617 12.2284L25.9958 15.4614L34.0484 7.40889L31.1692 4.5297L22.459 13.2399L25.4099 2.22683Z" fill="#F97316"/>
<path id="Vector_11" d="M28.1944 23.3944C27.8572 24.82 27.1453 26.1007 26.1685 27.1268L34.0815 35.0399L36.9607 32.1607L28.1944 23.3944Z" fill="#F97316"/>
<path id="Vector_12" d="M26.0886 27.2096C25.1 28.2193 23.8507 28.9728 22.4497 29.3611L25.3291 40.1071L29.2621 39.0532L26.0886 27.2096Z" fill="#F97316"/>
<path id="Vector_13" d="M22.3028 29.4004C21.6528 29.5675 20.9715 29.6563 20.2694 29.6563C19.5172 29.6563 18.7888 29.5543 18.0973 29.3634L15.2153 40.1192L19.1483 41.173L22.3028 29.4004Z" fill="#F97316"/>
<path id="Vector_14" d="M17.9583 29.3237C16.5787 28.9161 15.3516 28.153 14.3832 27.1404L6.45068 35.0729L9.32987 37.9521L17.9583 29.3237Z" fill="#F97316"/>
<path id="Vector_15" d="M14.3168 27.0704C13.365 26.0514 12.6717 24.7878 12.3417 23.3842L1.3833 26.3205L2.43715 30.2535L14.3168 27.0704Z" fill="#F97316"/>
</g>
<defs>
<clipPath id="clip0_716_232">
<rect width="168" height="41" fill="white" transform="translate(0 0.25)"/>
</clipPath>
</defs>
</svg>
