<svg width="170" height="42" viewBox="0 0 170 42" fill="none" xmlns="http://www.w3.org/2000/svg">
<g id="logoipsum-262" clip-path="url(#clip0_716_220)">
<path id="Vector" d="M51.2773 29.5732H63.2293V25.9732H55.5253V12.4132H51.2773V29.5732Z" fill="#2F234F"/>
<path id="Vector_2" d="M70.3108 27.1732C68.6068 27.1732 67.7188 25.6852 67.7188 23.4532C67.7188 21.2212 68.6068 19.7092 70.3108 19.7092C72.0148 19.7092 72.9268 21.2212 72.9268 23.4532C72.9268 25.6852 72.0148 27.1732 70.3108 27.1732ZM70.3348 29.9572C74.2948 29.9572 76.8868 27.1492 76.8868 23.4532C76.8868 19.7572 74.2948 16.9492 70.3348 16.9492C66.3988 16.9492 63.7588 19.7572 63.7588 23.4532C63.7588 27.1492 66.3988 29.9572 70.3348 29.9572Z" fill="#2F234F"/>
<path id="Vector_3" d="M83.7411 33.8212C85.5651 33.8212 87.1731 33.4132 88.2531 32.4532C89.2371 31.5652 89.8851 30.2212 89.8851 28.3732V17.2852H86.1411V18.6052H86.0931C85.3731 17.5732 84.2691 16.9252 82.6371 16.9252C79.5891 16.9252 77.4771 19.4692 77.4771 23.0692C77.4771 26.8372 80.0451 28.9012 82.8051 28.9012C84.2931 28.9012 85.2291 28.3012 85.9491 27.4852H86.0451V28.7092C86.0451 30.1972 85.3491 31.0612 83.6931 31.0612C82.3971 31.0612 81.7491 30.5092 81.5331 29.8612H77.7411C78.1251 32.4292 80.3571 33.8212 83.7411 33.8212ZM83.7171 25.9972C82.2531 25.9972 81.2931 24.7972 81.2931 22.9492C81.2931 21.0772 82.2531 19.8772 83.7171 19.8772C85.3491 19.8772 86.2131 21.2692 86.2131 22.9252C86.2131 24.6532 85.4211 25.9972 83.7171 25.9972Z" fill="#2F234F"/>
<path id="Vector_4" d="M97.5832 27.1732C95.8792 27.1732 94.9912 25.6852 94.9912 23.4532C94.9912 21.2212 95.8792 19.7092 97.5832 19.7092C99.2872 19.7092 100.199 21.2212 100.199 23.4532C100.199 25.6852 99.2872 27.1732 97.5832 27.1732ZM97.6072 29.9572C101.567 29.9572 104.159 27.1492 104.159 23.4532C104.159 19.7572 101.567 16.9492 97.6072 16.9492C93.6712 16.9492 91.0312 19.7572 91.0312 23.4532C91.0312 27.1492 93.6712 29.9572 97.6072 29.9572Z" fill="#2F234F"/>
<path id="Vector_5" d="M105.302 29.5732H109.214V17.2852H105.302V29.5732ZM105.302 15.5812H109.214V12.4132H105.302V15.5812Z" fill="#2F234F"/>
<path id="Vector_6" d="M110.911 33.6292H114.823V28.3012H114.871C115.639 29.3332 116.767 29.9572 118.351 29.9572C121.567 29.9572 123.703 27.4132 123.703 23.4292C123.703 19.7332 121.711 16.9252 118.447 16.9252C116.767 16.9252 115.567 17.6692 114.727 18.7732H114.655V17.2852H110.911V33.6292ZM117.343 26.9332C115.663 26.9332 114.703 25.5652 114.703 23.5732C114.703 21.5812 115.567 20.0692 117.271 20.0692C118.951 20.0692 119.743 21.4612 119.743 23.5732C119.743 25.6612 118.831 26.9332 117.343 26.9332Z" fill="#2F234F"/>
<path id="Vector_7" d="M130.072 29.9572C133.288 29.9572 135.664 28.5652 135.664 25.8772C135.664 22.7332 133.12 22.1812 130.96 21.8212C129.4 21.5332 128.008 21.4132 128.008 20.5492C128.008 19.7812 128.752 19.4212 129.712 19.4212C130.792 19.4212 131.536 19.7572 131.68 20.8612H135.28C135.088 18.4372 133.216 16.9252 129.736 16.9252C126.832 16.9252 124.432 18.2692 124.432 20.8612C124.432 23.7412 126.712 24.3172 128.848 24.6772C130.48 24.9652 131.968 25.0852 131.968 26.1892C131.968 26.9812 131.224 27.4132 130.048 27.4132C128.752 27.4132 127.936 26.8132 127.792 25.5892H124.096C124.216 28.3012 126.472 29.9572 130.072 29.9572Z" fill="#2F234F"/>
<path id="Vector_8" d="M140.978 29.9332C142.682 29.9332 143.762 29.2612 144.65 28.0612H144.722V29.5732H148.466V17.2852H144.554V24.1492C144.554 25.6132 143.738 26.6212 142.394 26.6212C141.146 26.6212 140.546 25.8772 140.546 24.5332V17.2852H136.658V25.3492C136.658 28.0852 138.146 29.9332 140.978 29.9332Z" fill="#2F234F"/>
<path id="Vector_9" d="M150.168 29.5732H154.08V22.6852C154.08 21.2212 154.8 20.1892 156.024 20.1892C157.2 20.1892 157.752 20.9572 157.752 22.2772V29.5732H161.664V22.6852C161.664 21.2212 162.36 20.1892 163.608 20.1892C164.784 20.1892 165.336 20.9572 165.336 22.2772V29.5732H169.248V21.5812C169.248 18.8212 167.856 16.9252 165.072 16.9252C163.488 16.9252 162.168 17.5972 161.208 19.0852H161.16C160.536 17.7652 159.312 16.9252 157.704 16.9252C155.928 16.9252 154.752 17.7652 153.984 19.0372H153.912V17.2852H150.168V29.5732Z" fill="#2F234F"/>
<path id="Vector_10" fill-rule="evenodd" clip-rule="evenodd" d="M20.1015 40.5732C31.1473 40.5732 40.1015 31.6189 40.1015 20.5732C40.1015 9.52754 31.1473 0.573242 20.1015 0.573242C9.05585 0.573242 0.101562 9.52754 0.101562 20.5732C0.101562 31.6189 9.05585 40.5732 20.1015 40.5732ZM23.1885 16.0258C24.8933 14.3209 24.8933 11.5568 23.1885 9.8519C21.4836 8.14702 18.7195 8.14702 17.0146 9.8519C15.3098 11.5568 15.3098 14.3209 17.0146 16.0258L20.1015 19.1127L23.1885 16.0258ZM24.649 23.6602C26.3539 25.3651 29.118 25.3651 30.8229 23.6602C32.5277 21.9553 32.5277 19.1912 30.8229 17.4863C29.118 15.7815 26.3539 15.7815 24.649 17.4863L21.5621 20.5733L24.649 23.6602ZM23.1885 31.2946C24.8933 29.5897 24.8933 26.8256 23.1885 25.1207L20.1015 22.0338L17.0146 25.1207C15.3098 26.8256 15.3098 29.5897 17.0146 31.2946C18.7195 32.9995 21.4836 32.9995 23.1885 31.2946ZM9.38019 23.6602C7.67535 21.9553 7.67535 19.1912 9.38019 17.4863C11.0851 15.7815 13.8492 15.7815 15.5541 17.4863L18.641 20.5733L15.5541 23.6602C13.8492 25.3651 11.0851 25.3651 9.38019 23.6602Z" fill="#7F57F1"/>
</g>
<defs>
<clipPath id="clip0_716_220">
<rect width="170" height="41" fill="white" transform="translate(0 0.25)"/>
</clipPath>
</defs>
</svg>
