<svg width="20" height="20" viewBox="0 0 20 20" fill="none" xmlns="http://www.w3.org/2000/svg">
<g id="vuesax/linear/message-question">
<g id="message-question">
<path id="Vector" d="M14.1665 15.3584H10.8332L7.12483 17.825C6.57483 18.1917 5.83317 17.8 5.83317 17.1334V15.3584C3.33317 15.3584 1.6665 13.6917 1.6665 11.1917V6.19166C1.6665 3.69166 3.33317 2.02499 5.83317 2.02499H14.1665C16.6665 2.02499 18.3332 3.69166 18.3332 6.19166V11.1917C18.3332 13.6917 16.6665 15.3584 14.1665 15.3584Z" stroke="#292D32" stroke-miterlimit="10" stroke-linecap="round" stroke-linejoin="round"/>
<path id="Vector_2" d="M10 9.46666V9.29169C10 8.72503 10.35 8.42501 10.7 8.18334C11.0417 7.95001 11.3833 7.65002 11.3833 7.10002C11.3833 6.33335 10.7667 5.71666 10 5.71666C9.23334 5.71666 8.6167 6.33335 8.6167 7.10002" stroke="#292D32" stroke-linecap="round" stroke-linejoin="round"/>
<path id="Vector_3" d="M9.99641 11.4583H10.0039" stroke="#292D32" stroke-linecap="round" stroke-linejoin="round"/>
</g>
</g>
</svg>
