<svg width="38" height="39" viewBox="0 0 38 39" fill="none" xmlns="http://www.w3.org/2000/svg">
<g id="ic:baseline-apple">
<path id="Vector" d="M26.9958 32.61C25.4441 34.1142 23.7499 33.8767 22.1191 33.1642C20.3933 32.4358 18.8099 32.4042 16.9891 33.1642C14.7091 34.1458 13.5058 33.8608 12.1441 32.61C4.41743 24.6458 5.55743 12.5175 14.3291 12.0742C16.4666 12.185 17.9549 13.2458 19.2058 13.3408C21.0741 12.9608 22.8633 11.8683 24.8583 12.0108C27.2491 12.2008 29.0541 13.1508 30.2416 14.8608C25.3016 17.8217 26.4733 24.3292 31.0016 26.15C30.0991 28.525 28.9274 30.8842 26.9799 32.6258L26.9958 32.61ZM19.0474 11.9792C18.8099 8.44833 21.6758 5.535 24.9691 5.25C25.4283 9.335 21.2641 12.375 19.0474 11.9792Z" fill="white"/>
</g>
</svg>
