<svg width="216" height="41" viewBox="0 0 216 41" fill="none" xmlns="http://www.w3.org/2000/svg">
<g id="Logo" clip-path="url(#clip0_14811_2913)">
<g id="Group">
<g id="Group_2">
<path id="Vector" d="M83.0412 9.4545V34.0909C83.0412 34.5909 82.6214 35 82.1082 35H79.4957C78.9825 35 78.5626 34.5909 78.5626 34.0909V21.0909C78.5626 20.1363 77.2097 19.8636 76.7898 20.7272L70.4918 34.4545C70.3518 34.7727 70.0253 35 69.652 35H67.7393C67.3661 35 67.0395 34.7727 66.8996 34.4545L60.6015 20.6818C60.1816 19.8181 58.8287 20.0909 58.8287 21.0454V34.0909C58.8287 34.5909 58.4088 35 57.8957 35H55.2831C54.77 35 54.3501 34.5909 54.3501 34.0909V9.4545C54.3501 8.9545 54.77 8.54541 55.2831 8.54541H58.5955C58.9687 8.54541 59.2952 8.77268 59.4352 9.09087L67.8793 27.4545C68.2058 28.1363 69.2322 28.1363 69.5587 27.4545L77.9561 9.09087C78.0961 8.77268 78.4227 8.54541 78.7959 8.54541H82.0615C82.668 8.54541 83.0412 8.9545 83.0412 9.4545Z" fill="#3C3C3B"/>
<path id="Vector_2" d="M107.627 26.0907H93.0717C92.4652 26.0907 92.0453 26.6362 92.1853 27.1816C92.4652 28.3635 93.025 29.318 93.9114 30.0907C95.0777 31.0907 96.4773 31.5907 98.1101 31.5907C100.349 31.5907 101.936 30.7726 102.962 29.0907C103.102 28.818 103.428 28.6816 103.755 28.6816H106.647C107.347 28.6816 107.767 29.3635 107.487 29.9998C106.787 31.3635 105.808 32.4998 104.501 33.4544C102.775 34.6816 100.676 35.318 98.1568 35.318C96.1041 35.318 94.2846 34.8635 92.6518 33.9544C91.019 33.0453 89.7594 31.7726 88.8263 30.1362C87.8933 28.4998 87.4268 26.5907 87.4268 24.4544C87.4268 22.318 87.8933 20.4089 88.7797 18.7725C89.6661 17.1362 90.9257 15.8635 92.5585 14.9998C94.1913 14.0907 96.0574 13.6816 98.1568 13.6816C100.163 13.6816 101.982 14.0907 103.568 14.9544C105.155 15.818 106.368 17.0453 107.254 18.5907C108.14 20.1362 108.56 21.9544 108.56 23.9544C108.56 24.4089 108.56 24.8635 108.514 25.2725C108.514 25.7725 108.094 26.0907 107.627 26.0907ZM102.962 22.5907C103.522 22.5907 103.988 22.0907 103.848 21.4998C103.615 20.4089 103.102 19.4544 102.216 18.7271C101.049 17.7726 99.6497 17.2725 97.9702 17.2725C96.4306 17.2725 95.1244 17.7271 94.0514 18.6816C93.2116 19.4089 92.6518 20.2725 92.3252 21.3635C92.1386 21.9544 92.6052 22.4998 93.2116 22.4998H102.962V22.5907Z" fill="#3C3C3B"/>
<path id="Vector_3" d="M112.852 18.8179C113.738 17.1815 114.951 15.9542 116.537 15.0451C118.077 14.1361 119.803 13.6815 121.716 13.6815C123.115 13.6815 124.515 13.9997 125.868 14.5906C126.521 14.8633 127.128 15.227 127.687 15.5906C128.294 16.0451 129.134 15.6361 129.134 14.8633V7.72696C129.134 7.22696 129.553 6.81787 130.067 6.81787H132.726C133.239 6.81787 133.659 7.22696 133.659 7.72696V34.0906C133.659 34.5906 133.239 34.9997 132.726 34.9997H130.067C129.553 34.9997 129.134 34.5906 129.134 34.0906V34.0451C129.134 33.2724 128.247 32.9088 127.641 33.3633C127.174 33.727 126.661 34.0451 126.148 34.3179C124.842 34.9542 123.395 35.3179 121.716 35.3179C119.85 35.3179 118.124 34.8633 116.584 33.9088C115.045 32.9997 113.832 31.6815 112.899 30.0451C112.012 28.3633 111.546 26.4997 111.546 24.4088C111.499 22.3179 111.966 20.4542 112.852 18.8179ZM128.154 20.727C127.547 19.6815 126.754 18.8633 125.775 18.2724C124.795 17.727 123.722 17.4542 122.556 17.4542C121.389 17.4542 120.363 17.727 119.337 18.2724C118.357 18.8179 117.564 19.6361 116.957 20.6815C116.351 21.727 116.024 22.9997 116.024 24.4088C116.024 25.8633 116.351 27.1361 116.957 28.227C117.564 29.3179 118.357 30.1361 119.383 30.727C120.363 31.3179 121.436 31.5906 122.556 31.5906C123.722 31.5906 124.748 31.3179 125.775 30.7724C126.754 30.227 127.547 29.4088 128.154 28.3179C128.76 27.227 129.087 25.9997 129.087 24.5451C129.087 23.0451 128.807 21.7724 128.154 20.727Z" fill="#3C3C3B"/>
<path id="Vector_4" d="M139.677 10.4543C139.117 9.90887 138.837 9.27251 138.837 8.49978C138.837 7.72705 139.117 7.04523 139.677 6.54523C140.237 5.99978 140.89 5.72705 141.683 5.72705C142.476 5.72705 143.129 5.99978 143.689 6.54523C144.249 7.09069 144.529 7.72705 144.529 8.49978C144.529 9.27251 144.249 9.95432 143.689 10.4543C143.129 10.9998 142.476 11.2725 141.683 11.2725C140.89 11.2271 140.19 10.9998 139.677 10.4543ZM143.876 14.9089V34.0907C143.876 34.5907 143.456 34.9998 142.943 34.9998H140.33C139.817 34.9998 139.397 34.5907 139.397 34.0907V14.9089C139.397 14.4089 139.817 13.9998 140.33 13.9998H142.943C143.456 13.9998 143.876 14.4089 143.876 14.9089Z" fill="#3C3C3B"/>
<path id="Vector_5" d="M158.804 25.1361L166.735 33.4997C167.295 34.0906 166.875 34.9997 166.082 34.9997H162.583C162.303 34.9997 162.07 34.9088 161.883 34.6815L155.819 27.8179C155.259 27.1815 154.233 27.5906 154.233 28.4088V34.0906C154.233 34.5906 153.813 34.9997 153.299 34.9997H150.687C150.174 34.9997 149.754 34.5906 149.754 34.0906V7.72696C149.754 7.22696 150.174 6.81787 150.687 6.81787H153.299C153.813 6.81787 154.233 7.22696 154.233 7.72696V20.727C154.233 21.5451 155.306 21.9542 155.865 21.3179L161.79 14.3633C161.977 14.1815 162.21 14.0451 162.49 14.0451H166.129C166.922 14.0451 167.342 14.9542 166.782 15.5451L158.851 23.9542C158.478 24.227 158.478 24.7724 158.804 25.1361Z" fill="#3C3C3B"/>
<path id="Vector_6" d="M190.062 26.0907H175.506C174.9 26.0907 174.48 26.6362 174.62 27.1816C174.9 28.3635 175.46 29.318 176.346 30.0907C177.512 31.0907 178.912 31.5907 180.545 31.5907C182.784 31.5907 184.37 30.7726 185.397 29.0907C185.536 28.818 185.863 28.6816 186.19 28.6816H189.082C189.782 28.6816 190.202 29.3635 189.922 29.9998C189.222 31.3635 188.242 32.4998 186.936 33.4544C185.21 34.6816 183.111 35.318 180.591 35.318C178.539 35.318 176.719 34.8635 175.086 33.9544C173.454 33.0453 172.194 31.7726 171.261 30.1362C170.328 28.4998 169.861 26.5907 169.861 24.4544C169.861 22.318 170.328 20.4089 171.214 18.7725C172.101 17.1362 173.36 15.8635 174.993 14.9998C176.626 14.0907 178.492 13.6816 180.591 13.6816C182.597 13.6816 184.417 14.0907 186.003 14.9544C187.589 15.818 188.802 17.0453 189.689 18.5907C190.575 20.1362 190.995 21.9544 190.995 23.9544C190.995 24.4089 190.995 24.8635 190.948 25.2725C190.948 25.7725 190.528 26.0907 190.062 26.0907ZM185.397 22.5907C185.956 22.5907 186.423 22.0907 186.283 21.4998C186.05 20.4089 185.536 19.4544 184.65 18.7271C183.484 17.7726 182.084 17.2725 180.405 17.2725C178.865 17.2725 177.559 17.7271 176.486 18.6816C175.646 19.4089 175.086 20.2725 174.76 21.3635C174.573 21.9544 175.04 22.4998 175.646 22.4998H185.397V22.5907Z" fill="#3C3C3B"/>
<path id="Vector_7" d="M195.287 18.818C196.173 17.1816 197.386 15.9544 198.972 15.0453C200.512 14.1362 202.238 13.6816 204.104 13.6816C205.784 13.6816 207.276 13.9998 208.536 14.6362C209.096 14.9089 209.609 15.2271 210.076 15.5907C210.682 16.0453 211.568 15.6362 211.568 14.9089C211.568 14.4089 211.988 13.9998 212.502 13.9998H215.161C215.674 13.9998 216.094 14.4089 216.094 14.9089V34.0907C216.094 34.5907 215.674 34.9998 215.161 34.9998H212.502C211.988 34.9998 211.568 34.5907 211.568 34.0907V34.0453C211.568 33.2726 210.682 32.9089 210.076 33.3635C209.609 33.7271 209.096 34.0453 208.489 34.3635C207.183 34.9998 205.69 35.3635 204.057 35.3635C202.191 35.3635 200.512 34.9089 198.972 33.9544C197.433 33.0453 196.22 31.7271 195.333 30.0907C194.447 28.4089 193.981 26.5453 193.981 24.4544C193.934 22.318 194.354 20.4544 195.287 18.818ZM210.589 20.7271C209.982 19.6816 209.189 18.8635 208.209 18.2725C207.23 17.7271 206.157 17.4544 204.99 17.4544C203.824 17.4544 202.798 17.7271 201.771 18.2725C200.792 18.818 199.999 19.6362 199.392 20.6816C198.786 21.7271 198.459 22.9998 198.459 24.4089C198.459 25.8635 198.786 27.1362 199.392 28.2271C199.999 29.318 200.792 30.1362 201.818 30.7271C202.798 31.318 203.871 31.5907 204.99 31.5907C206.157 31.5907 207.183 31.318 208.209 30.7725C209.189 30.2271 209.982 29.4089 210.589 28.318C211.195 27.2271 211.522 25.9998 211.522 24.5453C211.522 23.0453 211.195 21.7725 210.589 20.7271Z" fill="#3C3C3B"/>
</g>
<g id="Group_3">
<path id="Vector_8" d="M35.3158 41H6.81123C3.0324 41 0 38.0455 0 34.4091V6.63636C0 2.95455 3.0324 0 6.81123 0H35.3158C39.0479 0 42.127 2.95455 42.127 6.63636V34.4091C42.0803 38.0455 39.0479 41 35.3158 41Z" fill="#3579F8"/>
<path id="Vector_9" d="M9.75049 26.2728V24.3182V14.4546C9.75049 11.9546 11.8032 9.95459 14.3691 9.95459H27.7116C30.2775 9.95459 32.3302 11.9546 32.3302 14.4546V23.591C32.3302 26.091 30.2775 28.091 27.7116 28.091H15.8619L14.4157 28.9091L10.7302 30.9546C10.3103 31.1819 9.75049 30.9091 9.75049 30.4091V26.2728Z" fill="white"/>
<path id="Vector_10" d="M23.7459 16.4999H21.8798V14.6817C21.8798 14.3635 21.6466 14.1362 21.32 14.1362H20.7602C20.4336 14.1362 20.2003 14.3635 20.2003 14.6817V16.4999H18.3342C18.0077 16.4999 17.7744 16.7271 17.7744 17.0453V17.5908C17.7744 17.909 18.0077 18.1362 18.3342 18.1362H20.2003V19.9544C20.2003 20.2726 20.4336 20.4999 20.7602 20.4999H21.32C21.6466 20.4999 21.8798 20.2726 21.8798 19.9544V18.1362H23.7459C24.0725 18.1362 24.3057 17.909 24.3057 17.5908V17.0453C24.3057 16.7271 24.0725 16.4999 23.7459 16.4999Z" fill="#3579F8"/>
<path id="Vector_11" d="M21.04 24.818C20.0603 24.818 19.1273 24.5907 18.2409 24.1816C17.1679 23.6361 16.3281 22.8634 15.675 21.818C15.4417 21.4543 15.535 21.0452 15.8616 20.8634C16.0016 20.7725 16.1415 20.7271 16.2815 20.7271C16.5147 20.7271 16.748 20.8634 16.8413 21.0452C17.3078 21.7725 17.7743 22.2271 18.3342 22.5907C19.0339 23.0452 19.827 23.318 20.6201 23.3634C20.7601 23.3634 20.8534 23.3634 20.9933 23.3634C22.6262 23.3634 23.9791 22.6816 24.9588 21.318C25.0054 21.2725 25.0521 21.1816 25.0987 21.1361L25.1454 21.0452C25.332 20.7725 25.6119 20.7271 25.7519 20.7271C25.8918 20.7271 26.0318 20.7725 26.1717 20.818C26.4983 20.9998 26.5916 21.4089 26.405 21.7725C25.8918 22.5907 25.2387 23.2725 24.4456 23.7725C23.6525 24.2725 22.8128 24.5907 21.8797 24.7271C21.6931 24.7725 21.4599 24.7725 21.2733 24.7725C21.2266 24.818 21.1333 24.818 21.04 24.818Z" fill="#3579F8"/>
</g>
</g>
</g>
<defs>
<clipPath id="clip0_14811_2913">
<rect width="216" height="41" fill="white"/>
</clipPath>
</defs>
</svg>
