<svg width="38" height="39" viewBox="0 0 38 39" fill="none" xmlns="http://www.w3.org/2000/svg">
<g id="bxl:play-store">
<path id="Vector" d="M20.5104 18.8921L25.1923 14.2102L10.0699 5.71086C9.06767 5.16936 8.12875 5.09336 7.30542 5.68552L20.5104 18.8921ZM25.9903 24.3736L30.8575 21.636C31.8075 21.104 32.3284 20.3504 32.3284 19.5144C32.3284 18.6799 31.8075 17.9247 30.8591 17.3927L26.4527 14.9179L21.4921 19.8769L25.9903 24.3736ZM6.49159 6.83661C6.39025 7.14852 6.33325 7.49686 6.33325 7.87844V31.1614C6.33325 31.7646 6.46625 32.2839 6.70692 32.6972L19.5272 19.8754L6.49159 6.83661ZM20.5104 20.857L7.76142 33.6076C8.00525 33.701 8.26808 33.7501 8.54517 33.7501C9.03917 33.7501 9.55375 33.6044 10.0778 33.3131L24.7316 25.0845L20.5104 20.857Z" fill="white"/>
</g>
</svg>
