<svg width="43" height="41" viewBox="0 0 43 41" fill="none" xmlns="http://www.w3.org/2000/svg">
<g id="Group">
<path id="Vector" d="M35.3158 41H6.81123C3.0324 41 0 38.0455 0 34.4091V6.63636C0 2.95455 3.0324 0 6.81123 0H35.3158C39.0479 0 42.127 2.95455 42.127 6.63636V34.4091C42.0803 38.0455 39.0479 41 35.3158 41Z" fill="#3579F8"/>
<path id="Vector_2" d="M9.75049 26.2728V24.3182V14.4546C9.75049 11.9546 11.8032 9.95459 14.3691 9.95459H27.7116C30.2775 9.95459 32.3302 11.9546 32.3302 14.4546V23.591C32.3302 26.091 30.2775 28.091 27.7116 28.091H15.8619L14.4157 28.9091L10.7302 30.9546C10.3103 31.1819 9.75049 30.9091 9.75049 30.4091V26.2728Z" fill="white"/>
<path id="Vector_3" d="M23.7459 16.5H21.8798V14.6818C21.8798 14.3636 21.6466 14.1364 21.32 14.1364H20.7602C20.4336 14.1364 20.2003 14.3636 20.2003 14.6818V16.5H18.3342C18.0077 16.5 17.7744 16.7273 17.7744 17.0454V17.5909C17.7744 17.9091 18.0077 18.1364 18.3342 18.1364H20.2003V19.9545C20.2003 20.2727 20.4336 20.5 20.7602 20.5H21.32C21.6466 20.5 21.8798 20.2727 21.8798 19.9545V18.1364H23.7459C24.0725 18.1364 24.3057 17.9091 24.3057 17.5909V17.0454C24.3057 16.7273 24.0725 16.5 23.7459 16.5Z" fill="#3579F8"/>
<path id="Vector_4" d="M21.04 24.8182C20.0603 24.8182 19.1273 24.5909 18.2409 24.1818C17.1679 23.6364 16.3281 22.8637 15.675 21.8182C15.4417 21.4546 15.535 21.0455 15.8616 20.8637C16.0016 20.7728 16.1415 20.7273 16.2815 20.7273C16.5147 20.7273 16.748 20.8637 16.8413 21.0455C17.3078 21.7727 17.7743 22.2273 18.3342 22.5909C19.0339 23.0455 19.827 23.3182 20.6201 23.3637C20.7601 23.3637 20.8534 23.3637 20.9933 23.3637C22.6262 23.3637 23.9791 22.6818 24.9588 21.3182C25.0054 21.2728 25.0521 21.1818 25.0987 21.1364L25.1454 21.0455C25.332 20.7727 25.6119 20.7273 25.7519 20.7273C25.8918 20.7273 26.0318 20.7727 26.1717 20.8182C26.4983 21 26.5916 21.4091 26.405 21.7728C25.8918 22.5909 25.2387 23.2727 24.4456 23.7727C23.6525 24.2727 22.8128 24.5909 21.8797 24.7273C21.6931 24.7728 21.4599 24.7727 21.2733 24.7727C21.2266 24.8182 21.1333 24.8182 21.04 24.8182Z" fill="#3579F8"/>
</g>
</svg>
