<svg width="112" height="20" viewBox="0 0 112 20" fill="none" xmlns="http://www.w3.org/2000/svg">
<g id="Group 6249">
<g id="star">
<g id="Group">
<path id="Vector" d="M6.84185 6.30093C6.84185 6.30093 3.05776 6.73132 0.533429 7.01907C0.305904 7.04735 0.104724 7.20352 0.029282 7.44085C-0.0461605 7.67818 0.0292818 7.92535 0.196932 8.08152C2.07221 9.83875 4.88993 12.4703 4.88993 12.4703C4.88753 12.4703 4.11635 16.2983 3.60382 18.8524C3.56071 19.0836 3.64214 19.3283 3.83853 19.4746C4.03372 19.6209 4.28519 19.6234 4.48278 19.509C6.69097 18.2203 9.99846 16.2823 9.99846 16.2823C9.99846 16.2823 13.3071 18.2203 15.5117 19.5103C15.7129 19.6234 15.9644 19.6209 16.1596 19.4746C16.356 19.3283 16.4374 19.0836 16.3931 18.8536C15.8806 16.2983 15.1106 12.4703 15.1106 12.4703C15.1106 12.4703 17.9283 9.83875 19.8036 8.08521C19.9712 7.92412 20.0455 7.67695 19.9712 7.44085C19.897 7.20475 19.6958 7.04858 19.4683 7.02153C16.944 6.73132 13.1587 6.30093 13.1587 6.30093C13.1587 6.30093 11.5899 2.73729 10.5445 0.361529C10.4463 0.148793 10.2404 0 9.99846 0C9.75657 0 9.5494 0.150022 9.45599 0.361529C8.40938 2.73729 6.84185 6.30093 6.84185 6.30093Z" fill="#FFC700"/>
</g>
</g>
<g id="star_2">
<g id="Group_2">
<path id="Vector_2" d="M29.8419 6.30093C29.8419 6.30093 26.0578 6.73132 23.5334 7.01907C23.3059 7.04735 23.1047 7.20352 23.0293 7.44085C22.9538 7.67818 23.0293 7.92535 23.1969 8.08152C25.0722 9.83875 27.8899 12.4703 27.8899 12.4703C27.8875 12.4703 27.1163 16.2983 26.6038 18.8524C26.5607 19.0836 26.6421 19.3283 26.8385 19.4746C27.0337 19.6209 27.2852 19.6234 27.4828 19.509C29.691 18.2203 32.9985 16.2823 32.9985 16.2823C32.9985 16.2823 36.3071 18.2203 38.5117 19.5103C38.7129 19.6234 38.9644 19.6209 39.1596 19.4746C39.356 19.3283 39.4374 19.0836 39.3931 18.8536C38.8806 16.2983 38.1106 12.4703 38.1106 12.4703C38.1106 12.4703 40.9283 9.83875 42.8036 8.08521C42.9712 7.92412 43.0455 7.67695 42.9712 7.44085C42.897 7.20475 42.6958 7.04858 42.4683 7.02153C39.944 6.73132 36.1587 6.30093 36.1587 6.30093C36.1587 6.30093 34.5899 2.73729 33.5445 0.361529C33.4463 0.148793 33.2404 0 32.9985 0C32.7566 0 32.5494 0.150022 32.456 0.361529C31.4094 2.73729 29.8419 6.30093 29.8419 6.30093Z" fill="#FFC700"/>
</g>
</g>
<g id="star_3">
<g id="Group_3">
<path id="Vector_3" d="M52.8419 6.30093C52.8419 6.30093 49.0578 6.73132 46.5334 7.01907C46.3059 7.04735 46.1047 7.20352 46.0293 7.44085C45.9538 7.67818 46.0293 7.92535 46.1969 8.08152C48.0722 9.83875 50.8899 12.4703 50.8899 12.4703C50.8875 12.4703 50.1163 16.2983 49.6038 18.8524C49.5607 19.0836 49.6421 19.3283 49.8385 19.4746C50.0337 19.6209 50.2852 19.6234 50.4828 19.509C52.691 18.2203 55.9985 16.2823 55.9985 16.2823C55.9985 16.2823 59.3071 18.2203 61.5117 19.5103C61.7129 19.6234 61.9644 19.6209 62.1596 19.4746C62.356 19.3283 62.4374 19.0836 62.3931 18.8536C61.8806 16.2983 61.1106 12.4703 61.1106 12.4703C61.1106 12.4703 63.9283 9.83875 65.8036 8.08521C65.9712 7.92412 66.0455 7.67695 65.9712 7.44085C65.897 7.20475 65.6958 7.04858 65.4683 7.02153C62.944 6.73132 59.1587 6.30093 59.1587 6.30093C59.1587 6.30093 57.5899 2.73729 56.5445 0.361529C56.4463 0.148793 56.2404 0 55.9985 0C55.7566 0 55.5494 0.150022 55.456 0.361529C54.4094 2.73729 52.8419 6.30093 52.8419 6.30093Z" fill="#FFC700"/>
</g>
</g>
<g id="star_4">
<g id="Group_4">
<path id="Vector_4" d="M75.8419 6.30093C75.8419 6.30093 72.0578 6.73132 69.5334 7.01907C69.3059 7.04735 69.1047 7.20352 69.0293 7.44085C68.9538 7.67818 69.0293 7.92535 69.1969 8.08152C71.0722 9.83875 73.8899 12.4703 73.8899 12.4703C73.8875 12.4703 73.1163 16.2983 72.6038 18.8524C72.5607 19.0836 72.6421 19.3283 72.8385 19.4746C73.0337 19.6209 73.2852 19.6234 73.4828 19.509C75.691 18.2203 78.9985 16.2823 78.9985 16.2823C78.9985 16.2823 82.3071 18.2203 84.5117 19.5103C84.7129 19.6234 84.9644 19.6209 85.1596 19.4746C85.356 19.3283 85.4374 19.0836 85.3931 18.8536C84.8806 16.2983 84.1106 12.4703 84.1106 12.4703C84.1106 12.4703 86.9283 9.83875 88.8036 8.08521C88.9712 7.92412 89.0455 7.67695 88.9712 7.44085C88.897 7.20475 88.6958 7.04858 88.4683 7.02153C85.944 6.73132 82.1587 6.30093 82.1587 6.30093C82.1587 6.30093 80.5899 2.73729 79.5445 0.361529C79.4463 0.148793 79.2404 0 78.9985 0C78.7566 0 78.5494 0.150022 78.456 0.361529C77.4094 2.73729 75.8419 6.30093 75.8419 6.30093Z" fill="#FFC700"/>
</g>
</g>
<g id="star_5">
<g id="Group_5">
<path id="Vector_5" d="M98.8419 6.30093C98.8419 6.30093 95.0578 6.73132 92.5334 7.01907C92.3059 7.04735 92.1047 7.20352 92.0293 7.44085C91.9538 7.67818 92.0293 7.92535 92.1969 8.08152C94.0722 9.83875 96.8899 12.4703 96.8899 12.4703C96.8875 12.4703 96.1163 16.2983 95.6038 18.8524C95.5607 19.0836 95.6421 19.3283 95.8385 19.4746C96.0337 19.6209 96.2852 19.6234 96.4828 19.509C98.691 18.2203 101.998 16.2823 101.998 16.2823C101.998 16.2823 105.307 18.2203 107.512 19.5103C107.713 19.6234 107.964 19.6209 108.16 19.4746C108.356 19.3283 108.437 19.0836 108.393 18.8536C107.881 16.2983 107.111 12.4703 107.111 12.4703C107.111 12.4703 109.928 9.83875 111.804 8.08521C111.971 7.92412 112.045 7.67695 111.971 7.44085C111.897 7.20475 111.696 7.04858 111.468 7.02153C108.944 6.73132 105.159 6.30093 105.159 6.30093C105.159 6.30093 103.59 2.73729 102.545 0.361529C102.446 0.148793 102.24 0 101.998 0C101.757 0 101.549 0.150022 101.456 0.361529C100.409 2.73729 98.8419 6.30093 98.8419 6.30093Z" fill="#FFC700"/>
</g>
</g>
</g>
</svg>
