<svg width="16" height="15" viewBox="0 0 16 15" fill="none" xmlns="http://www.w3.org/2000/svg">
<g id="Group">
<path id="Vector" d="M12.9204 15H2.49191C1.10941 15 0 13.9191 0 12.5887V2.42794C0 1.08093 1.10941 0 2.49191 0H12.9204C14.2858 0 15.4123 1.08093 15.4123 2.42794V12.5887C15.3952 13.9191 14.2858 15 12.9204 15Z" fill="#3579F8"/>
<path id="Vector_2" d="M3.56738 9.61191V8.89683V5.28819C3.56738 4.37355 4.31837 3.64185 5.25711 3.64185H10.1385C11.0773 3.64185 11.8282 4.37355 11.8282 5.28819V8.63076C11.8282 9.54539 11.0773 10.2771 10.1385 10.2771H5.80328L5.27417 10.5764L3.92581 11.3248C3.7722 11.4079 3.56738 11.3081 3.56738 11.1252V9.61191Z" fill="white"/>
<path id="Vector_3" d="M8.68762 6.03662H8.00491V5.37143C8.00491 5.25502 7.91957 5.17188 7.80009 5.17188H7.59528C7.4758 5.17188 7.39046 5.25502 7.39046 5.37143V6.03662H6.70774C6.58827 6.03662 6.50293 6.11977 6.50293 6.23618V6.43573C6.50293 6.55214 6.58827 6.63529 6.70774 6.63529H7.39046V7.30048C7.39046 7.41689 7.4758 7.50003 7.59528 7.50003H7.80009C7.91957 7.50003 8.00491 7.41689 8.00491 7.30048V6.63529H8.68762C8.8071 6.63529 8.89244 6.55214 8.89244 6.43573V6.23618C8.89244 6.11977 8.8071 6.03662 8.68762 6.03662Z" fill="#3579F8"/>
<path id="Vector_4" d="M7.69771 9.07968C7.33929 9.07968 6.99793 8.99653 6.67364 8.84687C6.28108 8.64731 5.97386 8.3646 5.73491 7.98212C5.64957 7.84908 5.6837 7.69942 5.80318 7.6329C5.85438 7.59964 5.90558 7.58301 5.95679 7.58301C6.04213 7.58301 6.12747 7.6329 6.1616 7.69942C6.33228 7.96549 6.50296 8.13179 6.70778 8.26483C6.96379 8.43112 7.25395 8.5309 7.5441 8.54753C7.59531 8.54753 7.62944 8.54753 7.68065 8.54753C8.27802 8.54753 8.77299 8.29809 9.13142 7.79919C9.14849 7.78256 9.16555 7.74931 9.18262 7.73268L9.19969 7.69942C9.26796 7.59964 9.37037 7.58301 9.42157 7.58301C9.47278 7.58301 9.52398 7.59964 9.57518 7.61627C9.69466 7.68279 9.7288 7.83245 9.66052 7.96549C9.47278 8.26483 9.23383 8.51427 8.94367 8.6972C8.65352 8.88013 8.3463 8.99653 8.00494 9.04642C7.93667 9.06305 7.85133 9.06305 7.78305 9.06305C7.76599 9.07968 7.73185 9.07968 7.69771 9.07968Z" fill="#3579F8"/>
</g>
</svg>
