<svg width="24" height="24" viewBox="0 0 24 24" fill="none" xmlns="http://www.w3.org/2000/svg">
<g id="material-symbols:arrow-back-ios-new-rounded">
<path id="Vector" d="M2.9001 15.1249L11.3001 6.69994C11.4001 6.59994 11.5084 6.52894 11.6251 6.48694C11.7418 6.44494 11.8668 6.42428 12.0001 6.42494C12.1334 6.42494 12.2584 6.44561 12.3751 6.48694C12.4918 6.52828 12.6001 6.59928 12.7001 6.69994L21.1251 15.1249C21.3584 15.3583 21.4751 15.6499 21.4751 15.9999C21.4751 16.3499 21.3501 16.6499 21.1001 16.8999C20.8501 17.1499 20.5584 17.2749 20.2251 17.2749C19.8918 17.2749 19.6001 17.1499 19.3501 16.8999L12.0001 9.54994L4.6501 16.8999C4.41676 17.1333 4.1291 17.2499 3.7871 17.2499C3.4451 17.2499 3.14943 17.1249 2.9001 16.8749C2.6501 16.6249 2.5251 16.3333 2.5251 15.9999C2.5251 15.6666 2.6501 15.3749 2.9001 15.1249Z" fill="#666666"/>
</g>
</svg>
